<svg width="203" height="32" viewBox="0 0 203 32" fill="none" xmlns="http://www.w3.org/2000/svg">
<path d="M12.76 31V29.32L12.12 29.24C10.56 29.12 9.76 28.24 9.76 26.52V13.12H12.76V10.84H9.56C8.76 9.88 8.36 8.56 8.36 6.84C8.36 4.48 10.04 2.52 12.88 2.52C15.12 2.52 16.44 3.24 18 5.28C19.28 7 19.92 7.56 21.56 7.56C23.12 7.56 24.4 6.56 24.4 4.92C24.4 3.76 23.68 2.72 22.24 1.76C20.76 0.84 18.44 0.359999 15.28 0.359999C11.64 0.359999 8.84 1.28 6.88 3.12C4.92 5 3.92 7.16 3.92 9.64V10.84L0.92 11.8V13.12H3.92V26.68C3.92 28.24 3.48 29.12 1.6 29.24L0.92 29.32V31H12.76ZM26.8 31V29.32L26.16 29.24C24.6 29.12 23.8 28.24 23.8 26.52V10.84H21.8L14.72 12.96V14.64L15.68 14.6C17.28 14.48 17.96 15.04 17.96 16.68V26.68C17.96 28.24 17.52 29.12 15.64 29.24L14.96 29.32V31H26.8ZM36.4991 31V29.32C35.0991 29.32 34.6591 29.04 34.6591 28.36C34.6591 28 34.8991 27.52 35.3391 26.92L36.9791 24.76C37.4991 24.16 37.7791 23.6 37.8591 23.08H38.0591C38.1391 23.56 38.4191 24.12 38.8591 24.72L40.4191 26.8C40.9791 27.48 41.2591 28 41.2591 28.36C41.2591 29.12 40.7791 29.32 39.2991 29.32V31H50.6991V29.32C49.2991 29.32 48.4591 28.8 47.2991 27.2L42.1391 20.16L46.4991 14.72C47.8991 13 48.6991 12.52 50.2991 12.52V10.84H42.2991V12.52C43.5791 12.52 44.0191 12.76 44.0191 13.52C44.0191 13.96 43.7791 14.44 43.3391 15L41.6591 17.12C41.2191 17.68 40.9791 18.28 40.8991 18.96H40.6991C40.6191 18.36 40.3391 17.72 39.8991 17.12L38.6191 15.36C38.0191 14.56 37.7391 13.96 37.7391 13.52C37.7391 12.76 38.1391 12.52 39.3791 12.52V10.84H28.2191V12.52C29.6191 12.52 30.3391 12.96 31.5791 14.68L36.5791 21.52L32.0191 27.12C30.6991 28.84 29.8191 29.28 28.1791 29.28V31H36.4991ZM72.7991 31V29.32L72.1591 29.24C70.5991 29.12 69.7991 28.24 69.7991 26.52V13.12H72.7991V10.84H69.5991C68.7991 9.88 68.3991 8.56 68.3991 6.84C68.3991 4.48 70.0791 2.52 72.9191 2.52C75.1591 2.52 76.4791 3.24 78.0391 5.28C79.3191 7 79.9591 7.56 81.5991 7.56C83.1591 7.56 84.4391 6.56 84.4391 4.92C84.4391 3.76 83.7191 2.72 82.2791 1.76C80.7991 0.84 78.4791 0.359999 75.3191 0.359999C71.6791 0.359999 68.8791 1.28 66.9191 3.12C64.9591 5 63.9591 7.16 63.9591 9.64V10.84L60.9591 11.8V13.12H63.9591V26.68C63.9591 28.24 63.5191 29.12 61.6391 29.24L60.9591 29.32V31H72.7991ZM86.8391 31V29.32L86.1991 29.24C84.6391 29.12 83.8391 28.24 83.8391 26.52V10.84H81.8391L74.7591 12.96V14.64L75.7191 14.6C77.3191 14.48 77.9991 15.04 77.9991 16.68V26.68C77.9991 28.24 77.5591 29.12 75.6791 29.24L74.9991 29.32V31H86.8391ZM113.138 29.32C110.898 29.16 110.138 28.56 110.138 26.52V17C110.138 12.52 107.778 10.36 103.898 10.36C100.418 10.36 98.0581 12.28 96.7781 16.08L96.4581 15.96C96.8181 14.76 97.0181 13.84 97.0181 13.16V10.84H95.0181L88.4981 13.08V14.76C89.1781 14.72 89.6581 14.68 89.8981 14.68C90.8981 14.68 91.6181 15.2 91.6181 16.16V26.68C91.6181 28.6 90.9781 29.16 88.6181 29.32V31H99.5781V29.32C97.8581 29.16 97.4581 28.72 97.4581 26.68V16.36C98.2181 14.84 99.4181 14.08 101.058 14.08C103.218 14.08 104.298 15.32 104.298 17.84V26.8C104.298 28.56 103.738 29.2 102.138 29.32V31H113.138V29.32ZM135.109 27C134.709 27.6 134.229 27.88 133.709 27.88C132.789 27.88 132.349 27.28 132.349 26.12V18.8C132.349 13.16 129.709 10.36 124.389 10.36C119.709 10.36 116.709 12.88 115.869 16.44L117.429 17.12C118.429 15.08 120.109 14.04 122.469 14.04C125.149 14.04 126.509 15.4 126.509 18.12V19.04L123.029 19.72C117.869 20.72 115.309 22.88 115.309 26.2C115.309 29.68 117.629 31.48 120.949 31.48C123.669 31.48 125.749 30.2 126.549 27.92H126.829C127.349 30.28 128.789 31.44 131.149 31.44C133.389 31.44 135.389 30.2 136.189 27.84L135.109 27ZM124.109 28.2C122.349 28.2 121.229 27 121.229 25.04C121.229 22.96 122.469 21.64 124.989 21.08L126.509 20.76V26.56C126.029 27.64 125.229 28.2 124.109 28.2ZM162.083 29.32C159.843 29.16 159.083 28.56 159.083 26.52V17C159.083 12.52 156.723 10.36 152.843 10.36C149.363 10.36 147.003 12.28 145.723 16.08L145.403 15.96C145.763 14.76 145.963 13.84 145.963 13.16V10.84H143.963L137.443 13.08V14.76C138.123 14.72 138.603 14.68 138.843 14.68C139.843 14.68 140.563 15.2 140.563 16.16V26.68C140.563 28.6 139.923 29.16 137.563 29.32V31H148.523V29.32C146.803 29.16 146.403 28.72 146.403 26.68V16.36C147.163 14.84 148.363 14.08 150.003 14.08C152.163 14.08 153.243 15.32 153.243 17.84V26.8C153.243 28.56 152.683 29.2 151.083 29.32V31H162.083V29.32ZM173.461 31.48C177.941 31.48 180.781 28.72 181.701 24.84L180.301 24.12C179.341 25.84 177.741 26.68 175.541 26.68C171.421 26.68 168.861 23.84 168.861 19.36C168.861 15.72 170.701 13.4 173.941 13.4C176.661 13.4 178.341 14.8 178.941 17.56H180.941V11.72C179.061 10.8 176.941 10.36 174.661 10.36C171.421 10.36 168.821 11.4 166.861 13.52C164.901 15.64 163.941 18.2 163.941 21.24C163.941 24.24 164.821 26.68 166.581 28.6C168.341 30.52 170.621 31.48 173.461 31.48ZM195.337 26.68C191.817 26.68 189.417 24.24 188.977 19.72H202.017C202.017 13.64 198.657 10.36 193.497 10.36C190.577 10.36 188.297 11.36 186.617 13.4C184.937 15.44 184.097 18.12 184.097 21.44C184.097 24.36 184.977 26.76 186.737 28.64C188.457 30.52 190.737 31.48 193.497 31.48C195.897 31.48 197.817 30.84 199.217 29.52C200.617 28.2 201.577 26.68 202.017 24.92L200.577 24.2C199.417 25.84 197.697 26.68 195.337 26.68ZM192.577 12.36C194.697 12.36 195.777 14.16 195.777 17.72H188.897C188.977 14.16 190.217 12.36 192.577 12.36Z" fill="#EDF0EB"/>
</svg>
