<svg width="83" height="111" viewBox="0 0 83 111" fill="none" xmlns="http://www.w3.org/2000/svg">
<path d="M7.928 111L14.06 97.86V41.504H0.0440001V33.62H13.184C10.556 30.5053 9.242 26.612 9.242 21.94C9.242 17.7547 10.264 14.0073 12.308 10.698C14.4493 7.38866 17.3207 4.80933 20.922 2.96C24.5233 1.01333 28.5627 0.0399927 33.04 0.0399927C36.9333 0.0399927 40.048 0.769992 42.384 2.22999C44.72 3.59266 45.888 5.49066 45.888 7.924C45.888 9.57866 45.2553 10.9413 43.99 12.012C42.822 13.0827 41.1673 13.618 39.026 13.618C38.0527 13.618 37.0793 13.472 36.106 13.18C35.1327 12.888 34.1593 12.5473 33.186 12.158C32.2127 11.7687 31.2393 11.428 30.266 11.136C29.2927 10.844 28.2707 10.698 27.2 10.698C23.988 10.698 21.36 11.6713 19.316 13.618C17.3693 15.5647 16.396 18.1927 16.396 21.502C16.396 25.2007 17.7587 28.1693 20.484 30.408C23.2093 32.5493 26.908 33.62 31.58 33.62H73.19V99.904L82.826 111H53.042L59.174 97.422V41.504H27.93V100.196L37.274 111H7.928ZM66.182 1.792C68.6153 1.792 70.6593 2.668 72.314 4.42C73.9687 6.07466 74.796 8.16733 74.796 10.698C74.796 13.1313 73.9687 15.1753 72.314 16.83C70.7567 18.4847 68.7127 19.312 66.182 19.312C63.6513 19.312 61.5587 18.4847 59.904 16.83C58.2493 15.1753 57.422 13.1313 57.422 10.698C57.422 8.16733 58.2493 6.07466 59.904 4.42C61.5587 2.668 63.6513 1.792 66.182 1.792Z" fill="#0F1010"/>
</svg>
